<svg fill="none" height="46" viewBox="0 0 46 46" width="46" xmlns="http://www.w3.org/2000/svg" xmlns:xlink="http://www.w3.org/1999/xlink"><clipPath id="a"><path d="m0 0h46v46h-46z"/></clipPath><g clip-path="url(#a)"><path d="m46 23.0684c-.0368 12.6131-10.5575 22.9317-23.1707 22.9317h-.5759c-1.4887 0-2.6953-1.2066-2.6953-2.6953s1.2066-2.6953 2.6953-2.6953h.5876c9.7435 0 17.825-7.9719 17.7675-17.7145-.0566-9.6268-7.8766-17.44678-17.5025-17.50428-9.7435-.0575-17.71538 8.02488-17.71538 17.76748v.5876c0 1.4887-1.2066 2.6953-2.69531 2.6953s-2.69531-1.2066-2.69531-2.6953v-.5759c0-12.6123 10.3186-23.132966 22.9317-23.16980196 12.7569-.03683594 23.1051 10.31140196 23.0683 23.06830196zm-22.9155-14.08393c-7.7554-.04582-14.10012 6.38703-14.10012 14.14143v.6199c0 1.4887 1.20662 2.6953 2.69532 2.6953s2.6953-1.2066 2.6953-2.6953v-.6334c0-4.6836 3.83-8.6771 8.5127-8.7364 4.8444-.062 8.7984 3.892 8.7364 8.7364-.0602 4.6836-4.0528 8.5127-8.7364 8.5127h-.6343c-1.4887 0-2.6953 1.2066-2.6953 2.6953s1.2066 2.6953 2.6953 2.6953h.6199c7.7544 0 14.1872-6.3447 14.1414-14.1001-.0449-7.6609-6.2693-13.88531-13.9302-13.93113zm-.0845 8.98433c-2.7789 0-5.0312 2.2524-5.0312 5.0313 0 .7313.1572 1.4249.4375 2.052l-4.6027 4.6027-6.0429-2.0143c-.96851-.3225-2.03675-.0709-2.7582.6514l-4.475117 4.4751c-.944258.9443-.5651174 2.5525.702577 2.9756l4.86504 1.6217-.48695.487c-.70168.7016-.70168 1.8391 0 2.5408.70168.7016 1.8391.7016 2.54078 0l.48695-.487 1.62172 4.865c.4222 1.2668 2.0304 1.6469 2.9756.7026l4.476-4.476c.7214-.7214.9739-1.7897.6514-2.7582l-2.0143-6.0429 4.6027-4.6027c.6271.2803 1.3207.4375 2.052.4375 2.7789 0 5.0313-2.2523 5.0313-5.0312s-2.2533-5.0304-5.0322-5.0304z" fill="#fff"/></g></svg>