<svg fill="none" height="48" viewBox="0 0 48 48" width="48" xmlns="http://www.w3.org/2000/svg" xmlns:xlink="http://www.w3.org/1999/xlink"><clipPath id="a"><path d="m0 0h48v48h-48z"/></clipPath><g clip-path="url(#a)" fill="#fff"><path d="m8.4375 36.75c3.1066 0 5.625-2.5184 5.625-5.625s-2.5184-5.625-5.625-5.625-5.625 2.5184-5.625 5.625 2.5184 5.625 5.625 5.625z"/><path d="m16.875 45.1875c0-4.6527-3.7848-8.4375-8.4375-8.4375-4.65272 0-8.4375 3.7848-8.4375 8.4375v2.8125h16.875z"/><path d="m39.5625 36.75c3.1066 0 5.625-2.5184 5.625-5.625s-2.5184-5.625-5.625-5.625-5.625 2.5184-5.625 5.625 2.5184 5.625 5.625 5.625z"/><path d="m39.5625 36.75c-4.6527 0-8.4375 3.7848-8.4375 8.4375v2.8125h16.875v-2.8125c0-4.6527-3.7848-8.4375-8.4375-8.4375z"/><path d="m13.5397 19.7053-1.7085 5.1197 5.1196-1.7084c2.115 1.4392 4.536 2.1959 7.0492 2.1959s4.9342-.7567 7.0491-2.1959l5.1196 1.7084-1.7084-5.1196c1.4393-2.1149 2.1959-4.536 2.1959-7.0492 0-6.97898-5.6772-12.6562-12.6562-12.6562s-12.6562 5.67722-12.6562 12.6562c0 2.5132.7566 4.9343 2.1959 7.0491zm11.8665-.0178h-2.8124v-2.8125h2.8124zm-1.4062-14.0625c2.3263 0 4.2188 1.89244 4.2188 4.21875 0 1.32245-.6317 2.58445-1.6892 3.37695-.7032.5274-1.1234 1.3677-1.1234 2.2481h-2.8124c0-1.7606.8404-3.4429 2.248-4.4989.3598-.2692.5644-.6785.5644-1.12615 0-.77588-.6303-1.40625-1.4062-1.40625s-1.4062.63037-1.4062 1.40625h-2.8126c0-2.32631 1.8925-4.21875 4.2188-4.21875z"/></g></svg>